<svg width="39" height="45" viewBox="0 0 39 45" fill="none" xmlns="http://www.w3.org/2000/svg">
<g id="haedset">
<path id="Vector" d="M8.84369 37.3579C9.42487 37.3579 9.89631 36.8893 9.89631 36.3116V20.8235C9.89631 20.2459 9.42487 19.7773 8.84369 19.7773C7.23833 19.7773 5.66549 20.2095 4.29585 21.0296C3.45863 21.5305 2.72708 22.1485 2.11338 22.8555C2.23531 16.2587 4.32837 2.59255 19.4959 2.59255C30.197 2.59255 36.659 10.1508 36.8785 22.8515C36.2689 22.1445 35.5373 21.5305 34.7001 21.0296C33.3304 20.2095 31.7576 19.7773 30.1523 19.7773C29.5711 19.7773 29.0996 20.2459 29.0996 20.8235V36.3116C29.0996 36.8893 29.5711 37.3579 30.1523 37.3579C30.9813 37.3579 31.782 37.2407 32.542 37.0307V39.5312L24.5355 42.4681C23.9909 42.67 23.7105 43.2719 23.9137 43.8133C24.0722 44.2374 24.4746 44.5 24.9013 44.5C25.0232 44.5 25.1452 44.4798 25.2671 44.4354L33.9604 41.2481C34.3749 41.0946 34.6513 40.7027 34.6513 40.2664V36.1379C37.2524 34.6069 39 31.7872 39 28.5716V23.522C39 17.0384 37.419 11.4919 34.4318 7.4765C31.0301 2.91168 25.8686 0.5 19.5 0.5C12.9526 0.5 7.91299 2.80665 4.51126 7.35934C1.56065 11.3101 3.11712e-06 16.897 3.11712e-06 23.522V28.5716C-0.00406108 33.4111 3.96665 37.3579 8.84369 37.3579ZM31.2049 35.1805V21.9546C32.0543 22.088 32.8753 22.3829 33.6149 22.8232C35.6633 24.0472 36.8866 26.1922 36.8866 28.5676C36.8866 31.9003 34.4197 34.6755 31.2049 35.1805ZM5.37693 22.8232C6.11661 22.3788 6.93758 22.088 7.787 21.9546V35.1805C4.57222 34.6755 2.10526 31.9003 2.10526 28.5676C2.10526 26.1922 3.32858 24.0432 5.37693 22.8232Z" fill="#333333"/>
</g>
</svg>
