<svg class="s_svg" width="32" height="43" viewBox="0 0 32 43" fill="none" xmlns="http://www.w3.org/2000/svg">
<style>
    .s_svg path{
    fill:#FF3D43;
    }
</style>
<g id="login">
<path id="Vector" d="M0 26.8206V41.3663C0 41.9922 0.497573 42.5 1.11098 42.5H30.889C31.5024 42.5 32 41.9922 32 41.3663V26.8206C32 24.0804 30.6531 21.5722 28.3968 20.119C26.7925 19.0859 25.0895 18.2586 23.3094 17.6589C25.7158 15.0107 26.5652 11.2944 25.4627 7.69625C24.1416 3.37587 20.4311 0.552527 16.0086 0.5C16 0.5 15.9914 0.5 15.9828 0.5C11.5646 0.54815 7.85844 3.37151 6.53726 7.69188C5.43485 11.2944 6.27989 15.0107 8.68633 17.6589C6.90617 18.263 5.2032 19.0859 3.59891 20.119C1.3469 21.5722 0 24.0804 0 26.8206ZM4.79142 22.0362C6.78176 20.7537 8.94368 19.8257 11.2129 19.2873C11.6375 19.1866 11.9678 18.8364 12.0536 18.3987C12.1394 17.961 11.9635 17.5101 11.6032 17.2519C8.18874 14.7831 7.84985 11.0405 8.66916 8.3616C9.48846 5.68709 11.8434 2.81559 16.0043 2.76306C19.4359 2.80683 22.3185 5.00422 23.348 8.36597C24.1673 11.0405 23.8241 14.7831 20.4053 17.2519C20.0493 17.5101 19.8734 17.9566 19.9549 18.3987C20.0407 18.8364 20.3668 19.1822 20.7957 19.2873C23.0649 19.8301 25.2268 20.7537 27.2171 22.0362C28.8214 23.0736 29.7823 24.8596 29.7823 26.8206V40.2282H2.23054V26.8206C2.22625 24.8639 3.18713 23.0736 4.79142 22.0362Z" fill="#333333"/>
</g>
</svg>
