<svg class="m_svg" width="46" height="42" viewBox="0 0 46 42" fill="none" xmlns="http://www.w3.org/2000/svg">
<style>
    .m_svg path{
    fill:#FF3D43;
    }
</style>
<g id="market">
<path id="Vector" d="M36.0304 37.0671C36.0304 34.6196 34.0667 32.6299 31.6511 32.6299C29.6157 32.6299 27.9011 34.0462 27.4155 35.9589H25.4476C24.9577 34.0462 23.2474 32.6299 21.212 32.6299C19.1765 32.6299 17.462 34.0462 16.9763 35.9589H16.8327V30.0797H36.0346C36.4358 30.0797 36.8074 29.8572 36.9974 29.4978L45.8699 12.7974C46.0514 12.4551 46.043 12.0358 45.8445 11.702C45.646 11.3683 45.2913 11.1629 44.9028 11.1629H10.8319L7.45777 1.2488C7.30575 0.79952 6.89189 0.5 6.42314 0.5H1.09376C0.489875 0.5 0 0.996332 0 1.60821C0 2.22008 0.489875 2.71644 1.09376 2.71644H5.64188L14.6368 29.1512V37.0628C14.6368 37.6747 15.1267 38.171 15.7306 38.171H16.9679C17.4577 40.0837 19.1681 41.5 21.2035 41.5C23.239 41.5 24.9535 40.0837 25.4391 38.171H27.4071C27.8969 40.0837 29.6072 41.5 31.6427 41.5C34.0624 41.5085 36.0304 39.5146 36.0304 37.0671ZM43.0658 13.3836L35.3758 27.8633H16.5118L11.5836 13.3836H43.0658ZM21.2078 39.2878C20 39.2878 19.016 38.2908 19.016 37.0671C19.016 35.8433 20 34.8463 21.2078 34.8463C22.4155 34.8463 23.3995 35.8433 23.3995 37.0671C23.3995 38.2908 22.4155 39.2878 21.2078 39.2878ZM31.6469 39.2878C30.4391 39.2878 29.4552 38.2908 29.4552 37.0671C29.4552 35.8433 30.4391 34.8463 31.6469 34.8463C32.8547 34.8463 33.8386 35.8433 33.8386 37.0671C33.8386 38.2908 32.8547 39.2878 31.6469 39.2878Z" fill="#333333"/>
</g>
</svg>
